<svg width="16" height="16" viewBox="0 0 16 16" fill="none" xmlns="http://www.w3.org/2000/svg">
<path fill-rule="evenodd" clip-rule="evenodd" d="M8.00001 9.28291L1.5364 15.7465C1.18111 16.1018 0.687671 16.082 0.302856 15.6972C-0.0819592 15.3124 -0.101683 14.819 0.253541 14.4636L6.71715 8.00004L0.25349 1.53639C-0.101808 1.18109 -0.0820105 0.687651 0.302804 0.302836C0.687619 -0.0819785 1.18098 -0.101702 1.53635 0.253522L8.00001 6.71718L14.4637 0.253516C14.819 -0.101781 15.3123 -0.0820582 15.6972 0.30283C16.0821 0.687719 16.1018 1.18115 15.7465 1.53638L9.28287 8.00004L15.7465 14.4637C16.1018 14.819 16.0821 15.3123 15.6972 15.6972C15.3123 16.0821 14.8189 16.1017 14.4636 15.7465L8.00001 9.28291Z" fill="#6AB8EE"/>
</svg>
