<svg width="16" height="21" viewBox="0 0 16 21" fill="none" xmlns="http://www.w3.org/2000/svg">
<path fill-rule="evenodd" clip-rule="evenodd" d="M7.97554 0C10.8313 0 13.5629 1.38713 14.9286 3.8147C16.2944 6.12662 16.4185 8.90095 14.9285 11.2129V11.3285L9.5896 19.9983C9.21714 20.5763 8.59638 20.9231 7.97554 20.9231C7.35477 20.9231 6.73394 20.5763 6.36148 19.9983L1.1467 11.5597C-1.0882 7.97617 0.0292495 3.23669 3.75405 1.15596C4.99565 0.462356 6.48556 0 7.97554 0ZM4.87139 7.62941C4.87139 6.01103 6.23715 4.73948 7.97543 4.73948C9.71372 4.73948 11.0795 6.01103 11.0795 7.62941C11.0795 9.24779 9.71372 10.5193 7.97543 10.5193C6.23715 10.5193 4.87139 9.24779 4.87139 7.62941Z" fill="#6AB8EE"/>
</svg>
