<svg width="20" height="15" viewBox="0 0 20 15" fill="none" xmlns="http://www.w3.org/2000/svg">
<path fill-rule="evenodd" clip-rule="evenodd" d="M0.769265 1.66667H19.2307C19.6922 1.66667 20 1.33337 20 0.833333C20 0.333295 19.6923 0 19.2307 0H0.769265C0.307671 9.57744e-05 0 0.333391 0 0.833333C0 1.33328 0.307671 1.66667 0.769265 1.66667ZM19.2307 6.66699H0.769265C0.307759 6.66699 0 7.00029 0 7.50033C0 8.00036 0.307671 8.33366 0.769265 8.33366H19.2307C19.6922 8.33366 20 8.00036 20 7.50033C20 7.00029 19.6922 6.66699 19.2307 6.66699ZM0.769265 13.333H19.2307C19.6922 13.333 20 13.6663 20 14.1663C20 14.6664 19.6922 14.9997 19.2307 14.9997H0.769265C0.307671 14.9997 0 14.6664 0 14.1663C0 13.6663 0.307759 13.333 0.769265 13.333Z" fill="#6AB8EE"/>
</svg>
