<svg width="20" height="20" viewBox="0 0 20 20" fill="none" xmlns="http://www.w3.org/2000/svg">
<path fill-rule="evenodd" clip-rule="evenodd" d="M13.1464 4.32306C10.7094 1.88607 6.76005 1.88607 4.32306 4.32306C1.88607 6.76005 1.88607 10.7094 4.32306 13.1464C6.76005 15.5834 10.7094 15.5834 13.1464 13.1464C15.5834 10.7094 15.5834 6.76005 13.1464 4.32306ZM19.635 19.635C19.1471 20.1217 18.3573 20.1217 17.8694 19.635L13.94 15.7044C10.5185 18.2624 5.66696 18.0203 2.55865 14.9108C-0.852882 11.5005 -0.852882 5.97018 2.55865 2.55865C5.96893 -0.852882 11.5005 -0.852882 14.9108 2.55865C18.0203 5.66696 18.2624 10.5185 15.7044 13.94L19.635 17.8706C20.1217 18.3573 20.1217 19.1471 19.635 19.635Z" fill="#9D9D9D"/>
</svg>
