<svg width="20" height="20" viewBox="0 0 20 20" fill="none" xmlns="http://www.w3.org/2000/svg">
<path fill-rule="evenodd" clip-rule="evenodd" d="M4.96166 11.5655L0.353243 9.58996C-0.114806 9.38847 -0.118869 8.62953 0.347852 8.42279L19.2609 0.0429185C19.6619 -0.135197 20.0756 0.268277 19.9883 0.751882L16.5942 19.5032C16.5142 19.946 16.0623 20.1467 15.7433 19.8804L11.11 16.0169C10.8286 15.7823 10.4451 15.7948 10.1758 16.0469L7.60703 18.4521C7.30882 18.7321 6.85956 18.5761 6.74542 18.1541L4.96166 11.5655ZM15.465 4.14215L6.45841 10.5133C6.11321 10.7581 5.95067 11.2368 6.06219 11.6851L7.03599 15.6151C7.10513 15.8936 7.45708 15.865 7.4906 15.5773L7.7438 13.4221C7.79154 13.0164 7.96009 12.6425 8.22134 12.3632L15.6544 4.42745C15.7934 4.27935 15.6268 4.02797 15.465 4.14215Z" fill="white"/>
<path d="M6.4584 10.5133L15.465 4.14215C15.6268 4.02797 15.7934 4.27935 15.6544 4.42745L8.22134 12.3632C7.96009 12.6425 7.79154 13.0164 7.7438 13.4221L7.4906 15.5773C7.45708 15.865 7.10513 15.8936 7.03599 15.6151L6.06219 11.6851C5.95067 11.2368 6.11321 10.7581 6.4584 10.5133Z" fill="#EAEAEA"/>
</svg>
